#!OML:ASF H:\LiuWeirdWalks\Patient Classification 1\Patient 1\Session 1\male.ASF
:FULLY-SPECIFIED
:DEGREES
176
root -1.04797 17.7106 -16.4097 10.2715 4.639 5.94374
lowerback 9.85061 1.62625 -8.18385
upperback -0.77007 1.16232 -0.407313
thorax -6.52638 0.848185 3.999
lowerneck -20.8087 -1.18842 4.65622
upperneck 18.6243 -1.74786 -5.85686
head 9.18509 -1.15331 -3.03578
rclavicle -7.15625e-015 3.18055e-015
rhumerus -32.1983 -5.87926 -79.4339
rradius 28.9294
rwrist -6.4809
rhand -16.0349 -3.81435
rfingers 7.12502
rthumb 10.1665 -33.5487
lclavicle -7.15625e-015 3.18055e-015
lhumerus -48.3506 31.2003 56.6948
lradius 12.7444
lwrist -12.6586
lhand -15.0433 3.54419
lfingers 7.12502
lthumb 11.123 33.2294
rfemur -13.002 -10.9795 12.3851
rtibia 66.478
rfoot 2.10165 -17.2072
rtoes -0.65385
lfemur -27.5931 0.0256341 -28.1842
ltibia 33.9026
lfoot -18.3081 9.28164
ltoes -19.5819
177
root -1.02351 17.7238 -16.1625 10.1613 4.8019 6.37888
lowerback 9.84565 1.43637 -8.45249
upperback -0.76293 0.872648 -0.500145
thorax -6.48166 0.712178 4.09756
lowerneck -19.9951 -1.22739 4.46469
upperneck 18.4364 -1.76928 -5.62218
head 8.97845 -1.14326 -2.90541
rclavicle -5.86415e-015 1.98785e-015
rhumerus -32.8743 -6.32703 -79.0813
rradius 28.5221
rwrist -6.78508
rhand -16.348 -4.20176
rfingers 7.12502
rthumb 9.86441 -33.9507
lclavicle -5.86415e-015 1.98785e-015
lhumerus -46.7617 30.3593 58.8156
lradius 12.9416
lwrist -11.8177
lhand -15.2714 3.42687
lfingers 7.12502
lthumb 10.903 33.1238
rfemur -15.1 -11.7717 11.8655
rtibia 67.9858
rfoot -1.19447 -17.8912
rtoes -1.01037
lfemur -26.1581 -0.0659383 -28.6753
ltibia 33.2431
lfoot -18.3203 9.2603
ltoes -19.0497
178
root -0.998078 17.7325 -15.9151 10.0619 4.95644 6.78482
lowerback 9.83324 1.25072 -8.66953
upperback -0.763896 0.595462 -0.590307
thorax -6.4405 0.580813 4.16737
lowerneck -19.1665 -1.28551 4.25884
upperneck 18.3086 -1.81814 -5.36449
head 8.78926 -1.14473 -2.77068
rclavicle 2.20651e-014 -1.11319e-014
rhumerus -33.5754 -6.76386 -78.7006
rradius 28.1089
rwrist -7.0942
rhand -16.6959 -4.56862
rfingers 7.12502
rthumb 9.52878 -34.3332
lclavicle 2.20651e-014 -1.11319e-014
lhumerus -45.108 29.3014 61.0653
lradius 13.2287
lwrist -10.747
lhand -15.5044 3.37214
lfingers 7.12502
lthumb 10.6782 33.0808
rfemur -17.2157 -12.5077 11.4258
rtibia 69.2246
rfoot -4.20791 -18.4562
rtoes -1.50178
lfemur -24.7707 -0.169829 -29.1434
ltibia 32.6469
lfoot -18.2835 9.28032
ltoes -18.4362
179
root -0.972666 17.736 -15.6685 9.97438 5.1014 7.19342
lowerback 9.82446 1.07089 -8.88125
upperback -0.767993 0.326094 -0.682585
thorax -6.40458 0.45328 4.23006
lowerneck -18.4762 -1.32902 4.07236
upperneck 18.2318 -1.85241 -5.1345
head 8.64288 -1.14282 -2.65144
rclavicle -2.27608e-014 2.14687e-014
rhumerus -34.2965 -7.17362 -78.2945
rradius 27.6991
rwrist -7.37868
rhand -17.0441 -4.90481
rfingers 7.12502
rthumb 9.19279 -34.6844
lclavicle -2.27608e-014 2.14687e-014
lhumerus -43.4104 28.0621 63.3852
lradius 13.5976
lwrist -9.45299
lhand -15.7556 3.4114
lfingers 7.12502
lthumb 10.4359 33.1324
rfemur -19.3563 -13.1762 11.035
rtibia 70.2164
rfoot -6.87406 -18.9105
rtoes -2.11829
lfemur -23.4363 -0.299856 -29.6212
ltibia 32.1147
lfoot -18.1907 9.36058
ltoes -17.6949
180
root -0.947776 17.7336 -15.4228 9.89801 5.23491 7.64542
lowerback 9.83378 0.895672 -9.13771
upperback -0.780368 0.0544172 -0.786016
thorax -6.38681 0.326926 4.30572
lowerneck -18.0532 -1.32506 3.98884
upperneck 18.2323 -1.83132 -5.03254
head 8.57081 -1.12401 -2.59308
rclavicle 2.36554e-014 -1.86858e-014
rhumerus -35.0316 -7.57228 -77.8603
rradius 27.2765
rwrist -7.59465
rhand -17.3575 -5.22963
rfingers 7.12502
rthumb 8.89035 -35.0223
lclavicle 2.36554e-014 -1.86858e-014
lhumerus -41.7285 26.6675 65.701
lradius 14.051
lwrist -7.95004
lhand -16.0315 3.47434
lfingers 7.12502
lthumb 10.1698 33.2085
rfemur -21.5106 -13.7722 10.6413
rtibia 70.9766
rfoot -9.14863 -19.2418
rtoes -2.71655
lfemur -22.1501 -0.450032 -30.1554
ltibia 31.6475
lfoot -18.0192 9.50479
ltoes -16.7584
